{
    "accessors" : [
        {
            "bufferView" : 0, 
            "byteOffset" : 0, 
            "componentType" : 5123, 
            "count" : 1716, 
            "type" : "SCALAR", 
            "max" : [1715], 
            "min" : [0]
        }, 
        {
            "bufferView" : 1, 
            "byteOffset" : 0, 
            "componentType" : 5126, 
            "count" : 1716, 
            "type" : "VEC3", 
            "max" : [
                54880, 54884, 54888
            ], 
            "min" : [
                0, 4, 8
            ]
        }, 
        {
            "bufferView" : 1, 
            "byteOffset" : 12, "componentType" : 5126, "count" : 1716, "type" : "VEC3", "max" : [54892, 54896, 54900], "min" : [12, 16, 20]}, 
            {"bufferView" : 1, "byteOffset" : 24, "componentType" : 5126, "count" : 1716, "type" : "VEC2", "max" : [54904, 54908], "min" : [24, 28]}
    ], 
    "asset" : {"generator" : "Aspose.3D 20.8", "version" : "2.0"}, 
    "buffers" : [{"uri" : "buffer.bin", "byteLength" : 131116}], 
    "bufferViews" : [{"buffer" : 0, "byteOffset" : 0, "byteLength" : 3432, "target" : 34963}, {"buffer" : 0, "byteOffset" : 3436, "byteLength" : 54912, "byteStride" : 32, "target" : 34962}, {"buffer" : 0, "byteOffset" : 58352, "byteLength" : 72760}], 
    "images" : [{"mimeType" : "image/jpeg", "bufferView" : 2}], 
    "materials" : [{"pbrMetallicRoughness" : {"baseColorFactor" : [1, 1, 1, 1], "baseColorTexture" : {"index" : 0, "texCoord" : 0}, "metallicFactor" : 0.5, "roughnessFactor" : 0.5}, "emissiveFactor" : [0, 0, 0], "alphaMode" : "OPAQUE", "doubleSided" : false}], 
    "meshes" : [{"primitives" : [{"attributes" : {"POSITION" : 1, "NORMAL" : 2, "TEXCOORD_0" : 3}, "indices" : 0, "material" : 0, "mode" : 4}]}], 
    "nodes" : [{"mesh" : 0}, {"children" : [0]}], 
    "samplers" : [{"magFilter" : 9729, "minFilter" : 9987, "wrapS" : 10497, "wrapT" : 10497}], 
    "scene" : 0, "scenes" : [{"nodes" : [1]}], 
    "textures" : [{"sampler" : 0, "source" : 0}]
}