{
  "asset": {
    "version": "2.0",
    "generator": "gltfeditor.com"
  },
  "buffers": [
    {
      "uri": "scene_u2_data.bin",
      "byteLength": 85680
    }
  ],
  "bufferViews": [
    {
      "buffer": 0,
      "byteLength": 30240,
      "byteOffset": 0,
      "byteStride": 12,
      "target": 34962
    },
    {
      "buffer": 0,
      "byteLength": 30240,
      "byteOffset": 30240,
      "byteStride": 12,
      "target": 34962
    },
    {
      "buffer": 0,
      "byteLength": 20160,
      "byteOffset": 60480,
      "byteStride": 8,
      "target": 34962
    },
    {
      "buffer": 0,
      "byteLength": 5040,
      "byteOffset": 80640,
      "byteStride": 0,
      "target": 34963
    }
  ],
  "accessors": [
    {
      "bufferView": 0,
      "byteOffset": 0,
      "componentType": 5126,
      "count": 2520,
      "max": [
        0.2664031982421875,
        0.21217291057109833,
        0.029726041480898857
      ],
      "min": [
        -0.2664031982421875,
        -0.21217291057109833,
        -0.029726041480898857
      ],
      "type": "VEC3"
    },
    {
      "bufferView": 1,
      "byteOffset": 0,
      "componentType": 5126,
      "count": 2520,
      "max": [
        1,
        1,
        1
      ],
      "min": [
        -0.9982743859291077,
        -0.9980525970458984,
        -1
      ],
      "type": "VEC3"
    },
    {
      "bufferView": 2,
      "byteOffset": 0,
      "componentType": 5126,
      "count": 2520,
      "max": [
        0.900177001953125,
        0.8598229885101318
      ],
      "min": [
        0.003982300870120525,
        0.1460619419813156
      ],
      "type": "VEC2"
    },
    {
      "bufferView": 3,
      "byteOffset": 0,
      "componentType": 5123,
      "normalized": false,
      "count": 2520,
      "max": [
        2519
      ],
      "min": [
        0
      ],
      "type": "SCALAR"
    }
  ],
  "scene": 0,
  "scenes": [
    {
      "nodes": [
        2
      ]
    }
  ],
  "nodes": [
    {
      "mesh": 0
    },
    {
      "children": [
        0
      ],
      "matrix": [
        1,
        0,
        0,
        0,
        0,
        0.07073715329170227,
        0.9974949955940247,
        0,
        0,
        -0.9974949955940247,
        0.07073715329170227,
        0,
        0,
        0,
        0,
        1
      ]
    },
    {
      "children": [
        1
      ]
    }
  ],
  "meshes": [
    {
      "primitives": [
        {
          "attributes": {
            "POSITION": 0,
            "NORMAL": 1,
            "TEXCOORD_0": 2
          },
          "material": 0,
          "mode": 4,
          "indices": 3
        }
      ]
    }
  ],
  "materials": [
    {
      "pbrMetallicRoughness": {
        "baseColorFactor": [
          0.8,
          0.8,
          0.8,
          1
        ],
        "metallicFactor": 0.5,
        "roughnessFactor": 0.5,
        "baseColorTexture": {
          "index": 0,
          "texCoord": 0
        }
      },
      "emissiveFactor": [
        0,
        0,
        0
      ],
      "alphaMode": "OPAQUE",
      "doubleSided": false
    }
  ],
  "textures": [
    {
      "sampler": 0,
      "source": 0
    }
  ],
  "samplers": [
    {
      "magFilter": 9729,
      "minFilter": 9987,
      "wrapS": 10497,
      "wrapT": 10497
    }
  ],
  "images": [
    {
      "uri": "data:image/png;base64,",
      "mimeType": "image/png"
    }
  ]
}